<svg height="512pt" viewBox="0 0 512 512" width="512pt" xmlns="http://www.w3.org/2000/svg"><path d="m512 256c0 141.386719-114.613281 256-256 256s-256-114.613281-256-256 114.613281-256 256-256 256 114.613281 256 256zm0 0" fill="#414952"/><path d="m512 256c0-22.378906-2.878906-44.085938-8.273438-64.773438l-72.226562-72.226562-3.121094 5.1875-22.878906-22.875-35.53125 90.964844-90.96875-90.964844-11.515625 102.984375-102.984375-102.984375-65.238281 218.28125-39.261719 23.40625 167.402344 167.402344c9.390625 1.042968 18.929687 1.597656 28.597656 1.597656 141.386719 0 256-114.613281 256-256zm0 0" fill="#333940"/><path d="m80.5 119h351v195h-351zm0 0" fill="#fff"/><path d="m255.808594 119h175.691406v195h-175.691406zm0 0" fill="#e9edf5"/><path d="m215 333h82v125h-82zm0 0" fill="#afb4c8"/><path d="m255.808594 333h41.191406v125h-41.191406zm0 0" fill="#9196aa"/><path d="m60 304h392v39h-392zm0 0" fill="#cdd2e1"/><path d="m255.808594 304h196.191406v39h-196.191406zm0 0" fill="#bec3d2"/><path d="m106.5 101.3125h58v17.6875h-58zm0 0" fill="#ffd400"/><path d="m347.5 101.3125h58v17.6875h-58zm0 0" fill="#fdba12"/><path d="m227 101.3125h58v17.6875h-58zm0 0" fill="#ffd400"/><path d="m255.808594 101.3125h29.191406v17.6875h-29.191406zm0 0" fill="#fdba12"/><path d="m264.585938 286.085938h-34.425782l-22.125-62.746094h34.429688zm0 0" fill="#ffd400"/><path d="m255.808594 261.191406v24.894532h8.777344zm0 0" fill="#fdba12"/><path d="m224.257812 238.882812 84.464844 24.132813v-108.601563l-84.464844 24.136719zm0 0" fill="#ffc247"/><path d="m308.722656 154.414062-52.914062 15.121094v78.359375l52.914062 15.121094zm0 0" fill="#ffb13b"/><path d="m297.261719 146.914062h22.925781v123.601563h-22.925781zm0 0" fill="#f24500"/><path d="m207.980469 238.875h16.277343v-60.324219h-16.277343c-8.929688 0-16.167969 7.234375-16.167969 16.164063v27.996094c0 8.925781 7.238281 16.164062 16.167969 16.164062zm0 0" fill="#fe6a16"/></svg>