<svg height="512pt" viewBox="0 0 512 512" width="512pt" xmlns="http://www.w3.org/2000/svg"><path d="m512 256c0 141.386719-114.613281 256-256 256s-256-114.613281-256-256 114.613281-256 256-256 256 114.613281 256 256zm0 0" fill="#414952"/><path d="m512 256c0-13.421875-1.039062-26.601562-3.03125-39.46875l-98.398438-98.402344-309.140624 275.742188 115.101562 115.097656c12.867188 1.992188 26.046875 3.03125 39.46875 3.03125 141.386719 0 256-114.613281 256-256zm0 0" fill="#333940"/><path d="m101.429688 118.128906h309.140624v275.738282h-309.140624zm0 0" fill="#fff"/><path d="m255.808594 118.128906h154.761718v275.738282h-154.761718zm0 0" fill="#e9edf5"/><path d="m114.164062 155.941406h283.671876v222.53125h-283.671876zm0 0" fill="#4a7aff"/><path d="m255.808594 155.941406h142.027344v222.53125h-142.027344zm0 0" fill="#2864f0"/><path d="m228.617188 363.058594h-47.421876l-30.472656-86.429688h47.421875zm0 0" fill="#ffd400"/><path d="m198.144531 276.628906h-23.089843l29.316406 86.429688h24.246094zm0 0" fill="#fdba12"/><path d="m173.066406 298.035156 116.347656 33.246094v-149.589844l-116.347656 33.242188zm0 0" fill="#fff"/><path d="m173.066406 256.5v41.535156l116.347656 33.246094v-74.78125zm0 0" fill="#e9edf5"/><path d="m273.621094 171.355469h31.582031v170.257812h-31.582031zm0 0" fill="#fe6a16"/><path d="m273.621094 256.5h31.582031v85.113281h-31.582031zm0 0" fill="#f24500"/><path d="m150.644531 298.027344h22.421875v-83.09375h-22.421875c-12.296875 0-22.269531 9.96875-22.269531 22.265625v38.5625c.003906 12.296875 9.972656 22.265625 22.269531 22.265625zm0 0" fill="#fe6a16"/><path d="m128.378906 256.5v19.261719c0 12.296875 9.96875 22.265625 22.265625 22.265625h22.421875v-41.527344zm0 0" fill="#f24500"/><path d="m128.378906 137.949219c0 3.925781-3.183594 7.109375-7.109375 7.109375s-7.105469-3.183594-7.105469-7.109375 3.179688-7.105469 7.105469-7.105469 7.109375 3.179688 7.109375 7.105469zm0 0" fill="#fe6a16"/><path d="m152.066406 137.949219c0 3.925781-3.183594 7.109375-7.105468 7.109375-3.925782 0-7.109376-3.183594-7.109376-7.109375s3.183594-7.105469 7.109376-7.105469c3.921874 0 7.105468 3.179688 7.105468 7.105469zm0 0" fill="#ffd400"/><path d="m175.753906 137.949219c0 3.925781-3.179687 7.109375-7.105468 7.109375-3.925782 0-7.109376-3.183594-7.109376-7.109375s3.183594-7.105469 7.109376-7.105469c3.925781 0 7.105468 3.179688 7.105468 7.105469zm0 0" fill="#09ce67"/><path d="m190.558594 130.84375h207.277344v14.210938h-207.277344zm0 0" fill="#e6e6e6"/><path d="m255.808594 130.84375h142.027344v14.210938h-142.027344zm0 0" fill="#d7d7d7"/><path d="m333.4375 250h50v12h-50zm0 0" fill="#ffd400"/><path d="m333.4375 256.5h50v5.5h-50zm0 0" fill="#fdba12"/><path d="m320.671875 227.386719 35.375-35.335938 8.480469 8.492188-35.375 35.332031zm0 0" fill="#ffd400"/><path d="m329.144531 276.015625 35.375 35.335937-8.480469 8.488282-35.375-35.332032zm0 0" fill="#fdba12"/></svg>